<svg width="84" height="67" viewBox="0 0 84 67" fill="none" xmlns="http://www.w3.org/2000/svg">
<path d="M35.04 27.466L59.2225 0L51.7817 18.7268H57.3625L44.961 34.9567H51.7817L25.7391 66.7924L35.04 44.3203H27.5992L41.2406 27.466H35.04Z" fill="#801EE2"/>
<path d="M10.0928 32.8651V31.6698H18.2396V32.8651H20.2404L20.2165 31.4307V30.0761H18.6302V26.0919H11.0972C11.0972 28.9287 11.1211 30.0522 8.21946 30.0761H8.09989V32.8651H10.0928ZM16.2387 30.0761H12.5958C12.9146 29.5024 13.09 28.7295 13.09 27.6856H16.2387V30.0761ZM23.5167 31.6698L28.2118 28.1717V31.6698H30.6033V26.0919H27.7256L23.1102 29.5343V26.0919H20.7188V31.6698H23.5167ZM38.4594 28.092H35.1194V29.6777C35.7571 29.6777 38.0847 29.6777 38.5391 29.6777C38.6906 29.6777 38.7464 29.7494 38.7464 29.8689C38.7464 29.9885 38.6666 30.0761 38.5471 30.0761H34.2505C34.0512 30.0761 33.7323 29.9646 33.7323 29.7733H31.1815C31.1735 31.0881 33.7642 31.8053 36.347 31.8451C38.9297 31.877 41.5124 31.3351 41.5124 29.9646C41.5124 29.2952 40.9624 28.9844 40.6754 28.9127V28.8251C41.1617 28.6099 41.4327 28.2195 41.4327 27.7732C41.4327 26.3628 39.121 25.9246 36.6658 25.9246C34.0751 25.9246 31.4126 26.6497 31.4206 27.9964H33.9715C33.9715 27.8051 34.2903 27.6936 34.4896 27.6936H38.4674C38.5869 27.6936 38.6666 27.7732 38.6666 27.9007C38.6666 28.0203 38.6108 28.092 38.4594 28.092ZM50.7503 31.6698H53.5004L50.288 26.0919H44.7239L41.5114 31.6698H44.2615L45.4174 29.6777H49.6024L50.7503 31.6698ZM46.3341 28.084L46.5653 27.6856C46.6131 27.6856 48.4465 27.6856 48.4465 27.6856L48.6777 28.084H46.3341ZM56.7727 31.6698L61.4679 28.1717V31.6698H63.8593V26.0919H60.9816L56.3662 29.5343V26.0919H53.9747V31.6698H56.7727ZM56.964 25.6935H60.886V24.3389H56.964V25.6935ZM72.7959 31.6698H75.1873V26.0919H72.7959V28.084H67.2956V26.0919H64.9041V31.6698H67.2956V29.6777H72.7959V31.6698ZM5.59595 34.0683L3.22046 34.0603L0 39.6382H2.75812L4.67126 36.3233L7.21415 39.949L9.75705 36.3233L11.6702 39.6382H14.4283L11.2079 34.0603L8.83236 34.0683L7.21415 36.3791L5.59595 34.0683ZM19.3626 39.8772C21.7062 39.9011 24.7912 38.9449 24.7832 36.8493C24.7992 34.7376 21.7222 33.7894 19.3626 33.8213C17.0031 33.7894 13.9421 34.7376 13.958 36.8493C13.95 38.9449 17.019 39.9011 19.3626 39.8772ZM16.7879 36.8493C16.7879 35.893 17.9597 35.4388 19.3626 35.4388C20.7656 35.4388 21.9534 35.893 21.9534 36.8493C21.9534 37.8055 20.7656 38.2597 19.3626 38.2597C17.9597 38.2597 16.7879 37.8055 16.7879 36.8493ZM32.6538 39.6382H35.0452V34.0603H27.6716C27.6716 36.8971 27.6955 38.427 24.794 38.0445V39.6382C27.7434 40.0446 29.6645 39.1202 29.6645 35.654H32.6538V39.6382ZM41.2531 39.8772C43.5967 39.9011 46.6817 38.9449 46.6737 36.8493C46.6896 34.7376 43.6127 33.7894 41.2531 33.8213C38.8936 33.7894 35.8325 34.7376 35.8485 36.8493C35.8405 38.9449 38.9095 39.9011 41.2531 39.8772ZM38.6783 36.8493C38.6783 35.893 39.8501 35.4388 41.2531 35.4388C42.6561 35.4388 43.8438 35.893 43.8438 36.8493C43.8438 37.8055 42.6561 38.2597 41.2531 38.2597C39.8501 38.2597 38.6783 37.8055 38.6783 36.8493ZM48.755 40.8335V39.6382H56.9019V40.8335H58.9027L58.8788 39.3991V38.0445H57.2925V34.0603H49.7594C49.7594 36.8971 49.7834 38.0206 46.8818 38.0445H46.7622V40.8335H48.755ZM54.901 38.0445H51.2581C51.5769 37.4708 51.7523 36.6979 51.7523 35.654H54.901V38.0445ZM61.7724 34.0603H59.381V39.6382H66.906C69.5605 39.6382 69.5605 36.0524 66.906 36.0524H61.7724V34.0603ZM66.5792 37.6461C66.8343 37.6461 66.8263 38.0445 66.5792 38.0445H61.7724V37.6461H66.5792ZM69.1859 39.6382H71.5773V34.0603H69.1859V39.6382ZM77.9258 35.5504L75.7097 34.0603H72.1385L76.1402 36.7536L71.8515 39.6382H75.1836L77.8062 37.8772L80.4288 39.6382H84L79.5918 36.6739L83.4739 34.0603H80.1418L77.9258 35.5504Z" fill="white"/>
<path d="M17.771 43.7817H16.4573L15.5103 44.4861L14.5633 43.7817H13.2496L15.032 45.1108V46.0128H15.9886V45.1108L17.771 43.7817ZM19.5841 46.1085C20.5215 46.118 21.7555 45.7355 21.7523 44.8973C21.7587 44.0526 20.5279 43.6733 19.5841 43.6861C18.6402 43.6733 17.4158 44.0526 17.4222 44.8973C17.419 45.7355 18.6466 46.118 19.5841 46.1085ZM18.5541 44.8973C18.5541 44.5148 19.0229 44.3331 19.5841 44.3331C20.1452 44.3331 20.6203 44.5148 20.6203 44.8973C20.6203 45.2797 20.1452 45.4614 19.5841 45.4614C19.0229 45.4614 18.5541 45.2797 18.5541 44.8973ZM21.984 44.9291C21.9808 45.7674 23.0809 46.118 24.0183 46.1085C24.9557 46.118 26.0558 45.7674 26.0526 44.9291V43.7817H25.096V44.7698C25.096 45.2479 24.5476 45.4072 24.0183 45.4072C23.489 45.4072 22.9406 45.2479 22.9406 44.7698V43.7817H21.984V44.9291ZM28.931 43.7817H26.4055V46.0128H27.3622V44.4192H28.5483C29.3742 44.4192 29.7409 44.6518 29.7409 45.471V46.0128H30.6974V45.471C30.6974 44.2917 30.2383 43.7817 28.931 43.7817ZM30.8242 44.8973C30.8529 45.7993 31.87 46.1021 32.8585 46.1148C33.5345 46.1244 34.389 45.9969 34.7111 45.8312V44.6423H32.8298V45.2797H34.0734V45.3435C33.9905 45.4072 33.5409 45.4774 33.0307 45.471C32.5205 45.4646 31.9498 45.2957 31.9561 44.8973C31.9561 44.4574 32.4536 44.3267 33.0307 44.3267C33.6939 44.3267 34.4624 44.4988 34.7111 44.5849V43.9634C34.3986 43.804 33.7386 43.6797 33.0466 43.6797C31.9848 43.6797 30.8561 43.9761 30.8242 44.8973ZM40.9572 46.0128C41.8947 46.0128 42.7396 45.608 42.7365 44.8973C42.7428 44.1801 41.9011 43.7817 40.9572 43.7817H38.5403V46.0128H40.9572ZM41.1199 44.4192C41.3813 44.4192 41.6109 44.5658 41.6109 44.9004C41.6109 45.2351 41.3845 45.3754 41.1199 45.3754H39.4969V44.4192H41.1199ZM43.9184 45.216H46.1185V44.5785H43.9184V44.4192H46.5649V43.7817H42.9618V46.0128H46.7243V45.3754H43.9184V45.216ZM49.9618 44.4192C50.0415 44.4192 50.169 44.451 50.169 44.5275H51.1894C51.1926 43.4343 46.9932 43.4151 46.9932 44.553C46.9932 45.0853 47.8669 45.2001 48.2878 45.216H50.0032C50.0638 45.216 50.0861 45.2479 50.0861 45.2957C50.0861 45.3435 50.0542 45.3754 50.0064 45.3754H48.1443C48.0646 45.3754 47.937 45.3467 47.937 45.2702H46.9167C46.91 46.3539 51.2149 46.3571 51.2149 45.3021C51.2149 44.7825 50.5134 44.5785 49.4739 44.5785H48.2017C48.1539 44.5785 48.122 44.5466 48.122 44.4988C48.122 44.451 48.1443 44.4192 48.2049 44.4192H49.9618ZM51.5 46.0128H52.4566V43.7817H51.5V46.0128ZM52.7114 44.8973C52.7401 45.7993 53.7573 46.1021 54.7457 46.1148C55.4217 46.1244 56.2762 45.9969 56.5983 45.8312V44.6423H54.717V45.2797H55.9606V45.3435C55.8777 45.4072 55.4281 45.4774 54.9179 45.471C54.4077 45.4646 53.837 45.2957 53.8433 44.8973C53.8433 44.4574 54.3408 44.3267 54.9179 44.3267C55.5811 44.3267 56.3496 44.4988 56.5983 44.5849V43.9634C56.2858 43.804 55.6258 43.6797 54.9338 43.6797C53.872 43.6797 52.7433 43.9761 52.7114 44.8973ZM59.5336 43.7817H57.0083V46.0128H57.9648V44.4192H59.151C59.9768 44.4192 60.3435 44.6518 60.3435 45.471V46.0128H61.3001V45.471C61.3001 44.2917 60.8409 43.7817 59.5336 43.7817ZM65.1261 46.0128H68.9205V45.3754H65.9934V45.2957C65.9934 45.2542 66.0221 45.216 66.0827 45.216H68.2509C69.1533 45.216 69.1533 43.7817 68.2509 43.7817H65.2537V44.4192H67.9703C68.0915 44.4192 68.0883 44.5785 67.9703 44.5785H65.8021C65.3493 44.5785 65.1261 44.9387 65.1261 45.2957V46.0128ZM69.1557 46.0128H72.1817C72.8321 46.0128 72.88 45.0534 72.2933 44.9132V44.859C72.7779 44.6646 72.711 43.7817 72.086 43.7817H69.3151V44.4192H71.7129C71.8309 44.4192 71.8341 44.5785 71.7129 44.5785H69.7615V45.2287L71.7926 45.216C71.9106 45.216 71.9138 45.3754 71.7926 45.3754H69.1557V46.0128Z" fill="white"/>
</svg>
